# Blender 3.6.2
# www.blender.org
mtllib cans.mtl
o Cylinder
v 3.517283 1.894627 1.248596
v 1.298405 1.894626 1.712388
v 3.677245 1.518117 2.013888
v 1.458367 1.518116 2.477681
v 3.716753 0.672106 2.202900
v 1.497875 0.672105 2.666692
v 3.606056 -0.006342 1.673301
v 1.387177 -0.006343 2.137094
v 3.428511 -0.006342 0.823891
v 1.209633 -0.006343 1.287683
v 3.317813 0.672106 0.294292
v 1.098935 0.672105 0.758084
v 3.357321 1.518117 0.483303
v 1.138442 1.518116 0.947096
v 1.498627 1.500178 2.418696
v 1.346856 1.857407 1.692594
v 1.536112 0.697490 2.598029
v 1.431083 0.053784 2.095550
v 1.262630 0.053784 1.289637
v 1.157601 0.697490 0.787158
v 1.195085 1.500178 0.966491
vn 0.6081 0.7836 -0.1271
vn -0.8493 0.5097 0.1377
vn -0.7262 0.3815 0.5719
vn 0.7335 0.4886 0.4726
vn -0.6658 -0.1141 0.7373
vn 0.7644 -0.1744 0.6207
vn -0.7259 -0.5471 0.4168
vn 0.6777 -0.7060 0.2057
vn -0.8490 -0.5173 -0.1075
vn 0.5385 -0.7060 -0.4599
vn -0.9312 -0.0754 -0.3565
vn 0.4518 -0.1744 -0.8749
vn -0.8121 -0.5483 0.1998
vn -0.9280 -0.3344 -0.1642
vn -0.9248 0.3293 -0.1908
vn 0.4828 0.4886 -0.7268
vn -0.7240 -0.3613 0.5877
vn -0.7392 0.0707 0.6697
vn -0.8372 0.3768 0.3964
vn -0.9334 0.3581 0.0242
vn -0.9741 0.0694 -0.2153
vt 1.000000 0.500000
vt 1.000000 1.000000
vt 0.857143 1.000000
vt 0.857143 0.500000
vt 0.714286 1.000000
vt 0.714286 0.500000
vt 0.571429 1.000000
vt 0.571429 0.500000
vt 0.428571 1.000000
vt 0.428571 0.500000
vt 0.285714 1.000000
vt 0.285714 0.500000
vt 0.142857 1.000000
vt 0.142857 0.500000
vt 0.000000 1.000000
vt 0.000000 0.500000
vt 0.750000 0.490000
vt 0.937640 0.399638
vt 0.983983 0.196595
vt 0.854132 0.033767
vt 0.645868 0.033767
vt 0.516017 0.196595
vt 0.562360 0.399638
vt 0.437640 0.399638
vt 0.250000 0.490000
vt 0.062360 0.399638
vt 0.016017 0.196595
vt 0.145868 0.033767
vt 0.354132 0.033767
vt 0.483983 0.196595
s 1
f 1/1/1 2/2/2 4/3/3 3/4/4
f 3/4/4 4/3/3 6/5/5 5/6/6
f 5/6/6 6/5/5 8/7/7 7/8/8
f 7/8/8 8/7/7 10/9/9 9/10/10
f 9/10/10 10/9/9 12/11/11 11/12/12
f 4/3/3 2/2/2 16/2/13 15/3/14
f 11/12/12 12/11/11 14/13/15 13/14/16
f 13/14/16 14/13/15 2/15/2 1/16/1
f 1/17/1 3/18/4 5/19/6 7/20/8 9/21/10 11/22/12 13/23/16
f 15/24/14 16/25/13 21/26/17 20/27/18 19/28/19 18/29/20 17/30/21
f 8/7/7 6/5/5 17/5/21 18/7/20
f 14/13/15 12/11/11 20/11/18 21/13/17
f 10/9/9 8/7/7 18/7/20 19/9/19
f 2/15/2 14/13/15 21/13/17 16/15/13
f 6/5/5 4/3/3 15/3/14 17/5/21
f 12/11/11 10/9/9 19/9/19 20/11/18
o Cylinder.002
v 0.534178 0.000000 -1.122783
v 0.534178 2.818527 -1.122783
v 1.210882 0.000000 -0.282407
v 1.210882 2.818527 -0.282407
v 0.975767 0.000000 0.770628
v 0.975767 2.818527 0.770628
v 0.005879 0.000000 1.243364
v 0.005879 2.818527 1.243364
v -0.968435 0.000000 0.779821
v -0.968435 2.818527 0.779821
v -1.213498 0.000000 -0.270942
v -1.213498 2.818527 -0.270942
v -0.544772 0.000000 -1.117681
v -0.544772 2.818527 -1.117681
v 1.145722 2.754522 -0.288707
v 0.503672 2.754522 -1.086049
v 0.922647 2.754522 0.710403
v 0.002426 2.754522 1.158931
v -0.921995 2.754522 0.719126
v -1.154509 2.754522 -0.277830
v -0.520027 2.754522 -1.081208
vn 0.3367 -0.6212 -0.7076
vn 0.1838 0.8595 -0.4770
vn 0.5352 0.8279 -0.1678
vn 0.7631 -0.6212 -0.1780
vn 0.4797 0.8026 0.3545
vn 0.6150 -0.6212 0.4857
vn -0.0008 0.7958 0.6055
vn 0.0037 -0.6212 0.7836
vn -0.4741 0.8091 0.3473
vn -0.6103 -0.6212 0.4915
vn -0.5196 0.8386 -0.1637
vn -0.7648 -0.6212 -0.1708
vn -0.2090 0.8358 0.5077
vn -0.4603 0.8748 0.1514
vn -0.1980 0.8662 -0.4588
vn -0.3433 -0.6212 -0.7044
vn 0.2305 0.8289 0.5097
vn 0.4858 0.8606 0.1528
vn 0.3576 0.9006 -0.2472
vn 0.0028 0.9186 -0.3952
vn -0.3405 0.9094 -0.2389
vt 1.000000 0.500000
vt 1.000000 1.000000
vt 0.857143 1.000000
vt 0.857143 0.500000
vt 0.714286 1.000000
vt 0.714286 0.500000
vt 0.571429 1.000000
vt 0.571429 0.500000
vt 0.428571 1.000000
vt 0.428571 0.500000
vt 0.285714 1.000000
vt 0.285714 0.500000
vt 0.142857 1.000000
vt 0.142857 0.500000
vt 0.000000 1.000000
vt 0.000000 0.500000
vt 0.750000 0.490000
vt 0.937640 0.399638
vt 0.983983 0.196595
vt 0.854132 0.033767
vt 0.645868 0.033767
vt 0.516017 0.196595
vt 0.562360 0.399638
vt 0.437640 0.399638
vt 0.250000 0.490000
vt 0.062360 0.399638
vt 0.016017 0.196595
vt 0.145868 0.033767
vt 0.354132 0.033767
vt 0.483983 0.196595
s 1
f 22/31/22 23/32/23 25/33/24 24/34/25
f 24/34/25 25/33/24 27/35/26 26/36/27
f 26/36/27 27/35/26 29/37/28 28/38/29
f 28/38/29 29/37/28 31/39/30 30/40/31
f 30/40/31 31/39/30 33/41/32 32/42/33
f 25/33/24 23/32/23 37/32/34 36/33/35
f 32/42/33 33/41/32 35/43/36 34/44/37
f 34/44/37 35/43/36 23/45/23 22/46/22
f 22/47/22 24/48/25 26/49/27 28/50/29 30/51/31 32/52/33 34/53/37
f 36/54/35 37/55/34 42/56/38 41/57/39 40/58/40 39/59/41 38/60/42
f 29/37/28 27/35/26 38/35/42 39/37/41
f 35/43/36 33/41/32 41/41/39 42/43/38
f 31/39/30 29/37/28 39/37/41 40/39/40
f 23/45/23 35/43/36 42/43/38 37/45/34
f 27/35/26 25/33/24 36/33/35 38/35/42
f 33/41/32 31/39/30 40/39/40 41/41/39
o Cylinder.001
v 1.834926 0.002116 -3.211856
v 1.834926 2.268947 -3.211856
v 2.413269 0.002116 -2.564910
v 2.413269 2.268947 -2.564910
v 2.268057 0.002116 -1.709378
v 2.268057 2.268947 -1.709378
v 1.508638 0.002116 -1.289495
v 1.508638 2.268947 -1.289495
v 0.706869 0.002116 -1.621439
v 0.706869 2.268947 -1.621439
v 0.466499 0.002116 -2.455252
v 0.466499 2.268947 -2.455252
v 0.968532 0.002116 -3.163054
v 0.968532 2.268947 -3.163054
v 2.360672 2.217470 -2.567271
v 1.811945 2.217470 -3.181088
v 2.222897 2.217470 -1.755550
v 1.502366 2.217470 -1.357167
v 0.741654 2.217470 -1.672114
v 0.513593 2.217470 -2.463228
v 0.989918 2.217470 -3.134785
vn 0.2998 -0.6212 -0.7240
vn 0.1589 0.8595 -0.4858
vn 0.5259 0.8279 -0.1952
vn 0.7530 -0.6212 -0.2171
vn 0.4973 0.8026 0.3293
vn 0.6392 -0.6212 0.4533
vn 0.0304 0.7958 0.6048
vn 0.0441 -0.6212 0.7824
vn -0.4556 0.8091 0.3713
vn -0.5842 -0.6212 0.5223
vn -0.5273 0.8386 -0.1367
vn -0.7726 -0.6212 -0.1311
vn -0.1825 0.8358 0.5178
vn -0.4519 0.8748 0.1749
vn -0.2214 0.8662 -0.4480
vn -0.3792 -0.6212 -0.6858
vn 0.2564 0.8289 0.4972
vn 0.4930 0.8606 0.1275
vn 0.3443 0.9006 -0.2653
vn -0.0176 0.9186 -0.3949
vn -0.3523 0.9094 -0.2210
vt 1.000000 0.500000
vt 1.000000 1.000000
vt 0.857143 1.000000
vt 0.857143 0.500000
vt 0.714286 1.000000
vt 0.714286 0.500000
vt 0.571429 1.000000
vt 0.571429 0.500000
vt 0.428571 1.000000
vt 0.428571 0.500000
vt 0.285714 1.000000
vt 0.285714 0.500000
vt 0.142857 1.000000
vt 0.142857 0.500000
vt 0.000000 1.000000
vt 0.000000 0.500000
vt 0.750000 0.490000
vt 0.937640 0.399638
vt 0.983983 0.196595
vt 0.854132 0.033767
vt 0.645868 0.033767
vt 0.516017 0.196595
vt 0.562360 0.399638
vt 0.437640 0.399638
vt 0.250000 0.490000
vt 0.062360 0.399638
vt 0.016017 0.196595
vt 0.145868 0.033767
vt 0.354132 0.033767
vt 0.483983 0.196595
s 1
f 43/61/43 44/62/44 46/63/45 45/64/46
f 45/64/46 46/63/45 48/65/47 47/66/48
f 47/66/48 48/65/47 50/67/49 49/68/50
f 49/68/50 50/67/49 52/69/51 51/70/52
f 51/70/52 52/69/51 54/71/53 53/72/54
f 46/63/45 44/62/44 58/62/55 57/63/56
f 53/72/54 54/71/53 56/73/57 55/74/58
f 55/74/58 56/73/57 44/75/44 43/76/43
f 43/77/43 45/78/46 47/79/48 49/80/50 51/81/52 53/82/54 55/83/58
f 57/84/56 58/85/55 63/86/59 62/87/60 61/88/61 60/89/62 59/90/63
f 50/67/49 48/65/47 59/65/63 60/67/62
f 56/73/57 54/71/53 62/71/60 63/73/59
f 52/69/51 50/67/49 60/67/62 61/69/61
f 44/75/44 56/73/57 63/73/59 58/75/55
f 48/65/47 46/63/45 57/63/56 59/65/63
f 54/71/53 52/69/51 61/69/61 62/71/60
