# Blender 3.6.2
# www.blender.org
mtllib cassa.mtl
o Cube.010
v -1.152535 -0.021580 0.292807
v -1.152535 3.517206 0.292807
v -1.152535 -0.021580 -0.292807
v -1.152535 3.517206 -0.292807
v 1.152535 -0.021580 0.292807
v 1.152535 3.517206 0.292807
v 1.152535 -0.021580 -0.292807
v 1.152535 3.517206 -0.292807
v -1.152535 0.483961 0.292807
v -1.152535 0.989502 0.292807
v -1.152535 1.495043 0.292807
v -1.152535 2.000583 0.292807
v -1.152535 2.506124 0.292807
v -1.152535 3.011665 0.292807
v -1.152535 3.011665 -0.292807
v -1.152535 2.506124 -0.292807
v -1.152535 2.000583 -0.292807
v -1.152535 1.495043 -0.292807
v -1.152535 0.989502 -0.292807
v -1.152535 0.483961 -0.292807
v 1.152535 3.011665 -0.292807
v 1.152535 2.506124 -0.292807
v 1.152535 2.000583 -0.292807
v 1.152535 1.495043 -0.292807
v 1.152535 0.989502 -0.292807
v 1.152535 0.483961 -0.292807
v 1.152535 3.011665 0.292807
v 1.152535 2.506124 0.292807
v 1.152535 2.000583 0.292807
v 1.152535 1.495043 0.292807
v 1.152535 0.989502 0.292807
v 1.152535 0.483961 0.292807
v -1.152535 0.483961 0.671359
v -1.152535 0.989502 0.671359
v -1.152535 1.495043 0.671359
v -1.152535 2.000583 0.671359
v -1.152535 2.506124 0.671359
v -1.152535 3.011665 0.671359
v 1.152535 3.011665 0.671359
v 1.152535 2.506124 0.671359
v 1.152535 2.000583 0.671359
v 1.152535 1.495043 0.671359
v 1.152535 0.989502 0.671359
v 1.152535 0.483961 0.671359
vn -0.2454 0.0799 0.9661
vn -0.2431 0.1584 0.9570
vn -0.2431 0.1584 -0.9570
vn -0.2462 -0.0000 -0.9692
vn 0.2431 0.1584 -0.9570
vn 0.2462 -0.0000 -0.9692
vn 0.2431 0.1584 0.9570
vn 0.2454 0.0799 0.9661
vn -0.2431 -0.1584 -0.9570
vn 0.2431 -0.1584 -0.9570
vn 0.2431 -0.1584 0.9570
vn -0.2431 -0.1584 0.9570
vn -0.0000 1.0000 -0.0000
vt 0.589286 0.000000
vt 0.625000 0.000000
vt 0.625000 0.250000
vt 0.589286 0.250000
vt 0.625000 0.500000
vt 0.589286 0.500000
vt 0.625000 0.750000
vt 0.589286 0.750000
vt 0.625000 1.000000
vt 0.589286 1.000000
vt 0.125000 0.500000
vt 0.375000 0.500000
vt 0.375000 0.750000
vt 0.125000 0.750000
vt 0.875000 0.500000
vt 0.875000 0.750000
vt 0.410714 0.750000
vt 0.410714 1.000000
vt 0.375000 1.000000
vt 0.446429 0.750000
vt 0.446429 1.000000
vt 0.482143 0.750000
vt 0.482143 1.000000
vt 0.517857 0.750000
vt 0.517857 1.000000
vt 0.553571 0.750000
vt 0.553571 1.000000
vt 0.410714 0.500000
vt 0.446429 0.500000
vt 0.482143 0.500000
vt 0.517857 0.500000
vt 0.553571 0.500000
vt 0.375000 0.250000
vt 0.410714 0.250000
vt 0.446429 0.250000
vt 0.482143 0.250000
vt 0.517857 0.250000
vt 0.553571 0.250000
vt 0.375000 0.000000
vt 0.410714 0.000000
vt 0.446429 0.000000
vt 0.482143 0.000000
vt 0.517857 0.000000
vt 0.553571 0.000000
s 1
f 14/1/1 2/2/2 4/3/3 15/4/4
f 15/4/4 4/3/3 8/5/5 21/6/6
f 21/6/6 8/5/5 6/7/7 27/8/8
f 27/8/8 6/7/7 2/9/2 14/10/1
f 3/11/9 7/12/10 5/13/11 1/14/12
f 8/5/5 4/15/3 2/16/2 6/7/7
f 5/13/11 32/17/8 9/18/1 1/19/12
f 32/17/8 31/20/8 10/21/1 9/18/1
f 31/20/8 30/22/8 11/23/1 10/21/1
f 30/22/8 29/24/8 12/25/1 11/23/1
f 29/24/8 28/26/8 13/27/1 12/25/1
f 28/26/8 27/8/8 14/10/1 13/27/1
f 7/12/10 26/28/6 32/17/8 5/13/11
f 26/28/6 25/29/6 31/20/8 32/17/8
f 25/29/6 24/30/6 30/22/8 31/20/8
f 24/30/6 23/31/6 29/24/8 30/22/8
f 23/31/6 22/32/6 28/26/8 29/24/8
f 22/32/6 21/6/6 27/8/8 28/26/8
f 3/33/9 20/34/4 26/28/6 7/12/10
f 20/34/4 19/35/4 25/29/6 26/28/6
f 19/35/4 18/36/4 24/30/6 25/29/6
f 18/36/4 17/37/4 23/31/6 24/30/6
f 17/37/4 16/38/4 22/32/6 23/31/6
f 16/38/4 15/4/4 21/6/6 22/32/6
f 1/39/12 9/40/1 20/34/4 3/33/9
f 9/40/1 10/41/1 19/35/4 20/34/4
f 10/41/1 11/42/1 18/36/4 19/35/4
f 11/42/1 12/43/1 17/37/4 18/36/4
f 12/43/1 13/44/1 16/38/4 17/37/4
f 13/44/1 14/1/1 15/4/4 16/38/4
f 14/10/1 38/10/13 39/8/13 27/8/8
f 12/25/1 36/25/13 41/24/13 29/24/8
f 10/21/1 34/21/13 43/20/13 31/20/8
f 13/27/1 37/27/13 40/26/13 28/26/8
f 11/23/1 35/23/13 42/22/13 30/22/8
f 9/18/1 33/18/13 44/17/13 32/17/8
