# Blender 3.6.2
# www.blender.org
mtllib clutter.mtl
o Cube
v -0.987358 0.000000 0.662401
v -1.161129 0.665764 0.776471
v -0.997858 0.000000 -1.245883
v -1.115057 0.665764 -1.245883
v 0.987358 0.000000 0.662401
v 1.161129 0.665764 0.776471
v 0.997858 0.000000 -1.245883
v 1.115057 0.665764 -1.245883
v 0.604014 0.000000 -1.245882
v -0.604014 0.000000 -1.245882
v -0.604014 0.665764 -1.245882
v 0.604014 0.665764 -1.245882
v -0.604014 0.000000 0.662401
v 0.604014 0.000000 0.662401
v 0.841946 0.665764 0.764776
v -0.841946 0.665764 0.764776
v -1.231176 1.204245 -1.245883
v 0.604014 1.204245 -1.245882
v 1.231176 1.204245 -1.245883
v -0.604014 1.204245 -1.245882
v -0.997858 0.000000 -0.662401
v -1.115057 0.665764 -0.662401
v 0.997858 0.000000 -0.662401
v 1.115057 0.665764 -0.662401
v 0.775479 0.665764 -0.662401
v -0.775479 0.665764 -0.662401
v -0.604014 0.000000 -0.662401
v 0.604014 0.000000 -0.662401
v -1.231176 1.204245 -0.662401
v 1.231176 1.204245 -0.662401
v 0.800207 1.204245 -0.662401
v -0.800207 1.204245 -0.662401
v 0.604014 2.085459 -1.245882
v -1.231176 1.729334 -0.662401
v -1.231176 1.729334 -1.245883
v 1.231176 1.729334 -1.245883
v -0.604014 2.085689 -1.245882
v 1.231176 1.729334 -0.662401
v 0.604014 2.085689 -0.662401
v -0.604014 2.085689 -0.662401
v -1.231176 0.977299 0.840382
v -1.231176 1.204245 0.129214
v -1.231176 1.137774 0.632086
v 1.231176 1.204245 0.129214
v 1.231176 0.977299 0.840382
v 1.231176 1.137774 0.632086
v -0.800207 1.204245 0.129214
v -0.800207 0.977299 0.840382
v -0.800207 1.137774 0.632085
v 0.800207 0.977299 0.840382
v 0.800207 1.204245 0.129214
v 0.800207 1.137774 0.632085
v 0.777382 0.707186 -0.662401
v 0.785624 0.886679 -0.662401
v -0.777382 0.707186 -0.662401
v -0.785624 0.886679 -0.662401
v 0.781503 0.796933 -0.662401
v -0.781503 0.796933 -0.662401
v -1.132337 0.555456 0.757571
v -1.095639 0.555456 -1.245883
v 1.095639 0.555456 -1.245883
v 1.132337 0.555456 0.757571
v 0.802524 0.555456 0.747814
v -0.802524 0.555456 0.747814
v -0.604014 0.555456 -1.245882
v 0.604014 0.555456 -1.245882
v 1.095639 0.555456 -0.662401
v -1.095639 0.555456 -0.662401
vn -0.9812 -0.1928 -0.0094
vn -0.9810 -0.1935 -0.0137
vn -0.6396 -0.1252 -0.7585
vn -0.6419 -0.1130 -0.7584
vn -0.0000 -0.0000 -1.0000
vn 0.6396 -0.1252 -0.7585
vn 0.6419 -0.1130 -0.7584
vn 0.9812 -0.1928 -0.0094
vn 0.9810 -0.1935 -0.0137
vn 0.6235 -0.2693 0.7340
vn 0.6206 -0.2555 0.7413
vn 0.0112 -0.1528 0.9882
vn 0.2322 0.6197 0.7497
vn -0.6235 -0.2693 0.7340
vn -0.6206 -0.2555 0.7413
vn -0.0000 -1.0000 -0.0000
vn 0.2488 -0.9685 -0.0012
vn 0.2293 -0.9334 0.2758
vn -0.0019 -0.9569 0.2905
vn 0.6515 -0.0702 -0.7554
vn 0.6506 0.7170 0.2504
vn -0.1619 0.9487 -0.2717
vn 0.1621 0.9486 -0.2718
vn -0.2447 0.9235 0.2955
vn 0.2447 0.9235 0.2955
vn -0.2322 0.6197 0.7497
vn -0.2488 -0.9685 -0.0012
vn 0.0019 -0.9569 0.2905
vn -0.2293 -0.9334 0.2758
vn -0.0112 -0.1528 0.9882
vn 0.2485 0.9669 0.0575
vn 0.2978 0.9068 0.2985
vn 0.5849 0.2964 0.7550
vn -0.5610 0.3682 0.7414
vn 0.1919 0.7064 0.6813
vn -0.6506 0.7170 0.2504
vn -0.2485 0.9669 0.0575
vn 0.2393 0.9687 0.0660
vn -0.5849 0.2964 0.7550
vn -0.2978 0.9068 0.2985
vn 0.6408 -0.0117 0.7676
vn -0.6408 -0.0117 0.7676
vn -0.1919 0.7064 0.6813
vn 0.2845 0.9114 0.2975
vn 0.5610 0.3682 0.7414
vn -0.6515 -0.0702 -0.7554
vn -0.0000 0.9527 -0.3040
vn -0.1619 0.9487 0.2715
vn -0.5943 0.4963 0.6329
vn -0.5943 0.4963 -0.6329
vn 0.1620 0.9487 0.2715
vn -0.0000 -0.9527 -0.3040
vn -0.2389 -0.9265 -0.2908
vn 0.5942 0.4964 0.6328
vn -0.2845 0.9114 0.2975
vn -0.2393 0.9687 0.0660
vn 0.2389 -0.9265 -0.2908
vn 0.5942 0.4964 -0.6329
vt 0.583578 0.180081
vt 0.625000 0.180081
vt 0.625000 0.250000
vt 0.583578 0.250000
vt 0.583578 0.436325
vt 0.625000 0.436325
vt 0.625000 0.500000
vt 0.583578 0.500000
vt 0.583578 0.569919
vt 0.625000 0.569919
vt 0.625000 0.750000
vt 0.583578 0.750000
vt 0.583578 0.936325
vt 0.625000 0.936325
vt 0.625000 1.000000
vt 0.583578 1.000000
vt 0.311325 0.569919
vt 0.375000 0.569919
vt 0.375000 0.750000
vt 0.311325 0.750000
vt 0.625000 0.313675
vt 0.688675 0.569919
vt 0.811325 0.569919
vt 0.811325 0.750000
vt 0.688675 0.750000
vt 0.125000 0.569919
vt 0.188675 0.569919
vt 0.188675 0.750000
vt 0.125000 0.750000
vt 0.625000 0.813675
vt 0.583578 0.813675
vt 0.583578 0.313675
vt 0.625000 0.664780
vt 0.625000 0.725051
vt 0.875000 0.569919
vt 0.875000 0.664780
vt 0.811325 0.664780
vt 0.625000 0.000000
vt 0.625000 0.024949
vt 0.625000 0.085220
vt 0.811325 0.569919
vt 0.811325 0.725040
vt 0.188675 0.500000
vt 0.311325 0.500000
vt 0.125000 0.500000
vt 0.688675 0.569919
vt 0.688675 0.725040
vt 0.688675 0.664780
vt 0.688675 0.664780
vt 0.375000 0.500000
vt 0.583578 0.000000
vt 0.688675 0.500000
vt 0.811325 0.500000
vt 0.875000 0.500000
vt 0.875000 0.750000
vt 0.375000 0.000000
vt 0.375000 0.180081
vt 0.375000 0.313675
vt 0.375000 0.436325
vt 0.375000 0.250000
vt 0.375000 0.813675
vt 0.375000 0.936325
vt 0.375000 1.000000
s 1
f 68/1/1 22/2/2 4/3/3 60/4/4
f 66/5/5 12/6/5 8/7/6 61/8/7
f 67/9/8 24/10/9 6/11/10 62/12/11
f 64/13/12 16/14/13 2/15/14 59/16/15
f 28/17/16 23/18/17 5/19/18 14/20/19
f 24/10/9 8/7/6 19/7/20 30/10/21
f 12/6/5 11/21/5 37/21/22 33/6/23
f 25/22/24 26/23/25 16/24/13 15/25/26
f 21/26/27 27/27/16 13/28/28 1/29/29
f 27/27/16 28/17/16 14/20/19 13/28/28
f 62/12/11 6/11/10 15/30/26 63/31/30
f 63/31/30 15/30/26 16/14/13 64/13/12
f 60/4/4 4/3/3 11/21/5 65/32/5
f 65/32/5 11/21/5 12/6/5 66/5/5
f 6/11/10 24/10/9 30/10/21 44/33/31 46/34/32 45/11/33
f 15/30/26 6/11/10 45/11/33 50/30/34
f 32/23/35 29/35/36 42/36/37 47/37/38
f 22/2/2 2/38/14 41/38/39 43/39/40 42/40/37 29/2/36
f 56/41/41 54/22/42 31/22/43 32/23/35
f 16/24/13 26/23/25 55/23/41 58/23/41 56/41/41 32/23/35 47/37/38 49/42/44 48/24/45
f 8/7/6 12/6/5 18/6/5 19/7/20
f 11/21/5 4/3/3 17/3/46 20/21/47
f 29/35/36 32/23/35 40/23/48 34/35/49
f 4/3/3 22/2/2 29/2/36 17/3/46
f 17/3/46 29/2/36 34/2/49 35/3/50
f 32/23/35 31/22/43 39/22/51 40/23/48
f 10/43/52 9/44/52 28/17/16 27/27/16
f 3/45/53 10/43/52 27/27/16 21/26/27
f 31/46/43 30/10/21 38/10/54 39/46/51
f 25/22/24 15/25/26 50/25/34 52/47/55 51/48/56 31/46/43 54/22/42 57/22/42 53/22/42
f 30/10/21 31/46/43 51/49/56 44/33/31
f 9/44/52 7/50/57 23/18/17 28/17/16
f 61/8/7 8/7/6 24/10/9 67/9/8
f 59/51/15 2/38/14 22/2/2 68/1/1
f 36/7/58 33/52/23 39/46/51 38/10/54
f 37/53/22 35/54/50 34/35/49 40/23/48
f 33/52/23 37/53/22 40/23/48 39/22/51
f 20/21/47 17/3/46 35/3/50 37/21/22
f 19/7/20 18/6/5 33/6/23 36/7/58
f 11/21/5 20/21/47 37/21/22
f 30/10/21 19/7/20 36/7/58 38/10/54
f 18/6/5 12/6/5 33/6/23
f 47/37/38 42/36/37 43/55/40 49/24/44
f 49/14/44 43/15/40 41/15/39 48/14/45
f 44/33/31 51/49/56 52/25/55 46/11/32
f 46/11/32 52/30/55 50/30/34 45/11/33
f 2/15/14 16/14/13 48/14/45 41/15/39
f 26/23/25 25/22/24 53/22/42 55/23/41
f 58/23/41 57/22/42 54/22/42 56/41/41
f 55/23/41 53/22/42 57/22/42 58/23/41
f 1/56/29 59/51/15 68/1/1 21/57/27
f 7/50/57 61/8/7 67/9/8 23/18/17
f 10/58/52 65/32/5 66/5/5 9/59/52
f 3/60/53 60/4/4 65/32/5 10/58/52
f 14/61/19 63/31/30 64/13/12 13/62/28
f 5/19/18 62/12/11 63/31/30 14/61/19
f 13/62/28 64/13/12 59/16/15 1/63/29
f 23/18/17 67/9/8 62/12/11 5/19/18
f 9/59/52 66/5/5 61/8/7 7/50/57
f 21/57/27 68/1/1 60/4/4 3/60/53
o Cube.001
v -0.772101 0.671177 -0.408857
v -0.568975 0.636205 -0.589087
v -0.744887 0.653691 -0.498972
v -0.670538 0.640890 -0.564941
v -0.772101 0.867099 -0.408857
v -0.568975 0.902071 -0.589087
v -0.744887 0.884585 -0.498972
v -0.670538 0.897386 -0.564941
v 0.772101 0.671177 -0.408857
v 0.568975 0.636205 -0.589087
v 0.744887 0.653691 -0.498972
v 0.670538 0.640890 -0.564941
v 0.772101 0.867099 -0.408857
v 0.568975 0.902071 -0.589087
v 0.744887 0.884585 -0.498972
v 0.670538 0.897386 -0.564941
v -0.772101 0.671177 0.496453
v -0.568975 0.636205 0.520181
v -0.744887 0.653691 0.508317
v -0.670538 0.640890 0.517002
v -0.772101 0.691430 0.600829
v -0.568975 0.686826 0.781059
v -0.744887 0.689128 0.690944
v -0.670538 0.687443 0.756912
v -0.772101 0.674342 0.557326
v -0.568975 0.642987 0.650620
v -0.744887 0.658665 0.603973
v -0.670538 0.647188 0.638121
v -0.772101 0.679619 0.584518
v -0.568975 0.661516 0.746108
v -0.744887 0.670567 0.665313
v -0.670538 0.663941 0.724459
v -0.772101 0.846846 0.600829
v -0.568975 0.851450 0.781059
v -0.744887 0.849148 0.690944
v -0.670538 0.850833 0.756912
v -0.772101 0.867099 0.496453
v -0.568975 0.902071 0.520181
v -0.744887 0.884585 0.508317
v -0.670538 0.897386 0.517002
v -0.772101 0.858657 0.584518
v -0.568975 0.876760 0.746108
v -0.744887 0.867709 0.665313
v -0.670538 0.874335 0.724459
v -0.772101 0.863934 0.557326
v -0.568975 0.895289 0.650620
v -0.744887 0.879611 0.603973
v -0.670538 0.891088 0.638121
v 0.772101 0.691430 0.600829
v 0.568975 0.686826 0.781059
v 0.744887 0.689128 0.690944
v 0.670538 0.687443 0.756912
v 0.772101 0.671177 0.496453
v 0.568975 0.636205 0.520181
v 0.744887 0.653691 0.508317
v 0.670538 0.640890 0.517002
v 0.772101 0.679619 0.584518
v 0.568975 0.661516 0.746108
v 0.744887 0.670567 0.665313
v 0.670538 0.663941 0.724459
v 0.772101 0.674342 0.557326
v 0.568975 0.642987 0.650620
v 0.744887 0.658665 0.603973
v 0.670538 0.647188 0.638121
v 0.772101 0.867099 0.496453
v 0.568975 0.902071 0.520181
v 0.744887 0.884585 0.508317
v 0.670538 0.897386 0.517002
v 0.772101 0.846846 0.600829
v 0.568975 0.851450 0.781059
v 0.744887 0.849148 0.690944
v 0.670538 0.850833 0.756912
v 0.772101 0.863934 0.557326
v 0.568975 0.895289 0.650620
v 0.744887 0.879611 0.603973
v 0.670538 0.891088 0.638121
v 0.772101 0.858657 0.584518
v 0.568975 0.876760 0.746108
v 0.744887 0.867709 0.665313
v 0.670538 0.874335 0.724459
vn -0.0263 -0.9934 0.1113
vn 0.0263 -0.9934 0.1113
vn 0.0434 -0.9470 0.3183
vn -0.0434 -0.9470 0.3183
vn -0.0405 -0.9809 -0.1903
vn 0.0405 -0.9809 -0.1903
vn 0.0228 -0.9994 0.0255
vn -0.0228 -0.9994 0.0255
vn 0.8620 -0.4977 -0.0966
vn 0.8620 0.4977 -0.0966
vn 0.7753 0.6314 0.0161
vn 0.7994 0.5971 0.0669
vn 0.9102 0.3925 0.1319
vn 0.9822 0.1053 0.1552
vn 0.9822 -0.1053 0.1552
vn 0.9102 -0.3925 0.1319
vn 0.7994 -0.5971 0.0669
vn 0.7753 -0.6314 0.0161
vn -0.0405 0.9809 -0.1903
vn 0.0405 0.9809 -0.1903
vn 0.0968 -0.5588 0.8236
vn -0.0968 -0.5588 0.8236
vn 0.0434 0.9470 0.3183
vn -0.0434 0.9470 0.3183
vn -0.0968 0.5588 0.8236
vn 0.0968 0.5588 0.8236
vn 0.0263 0.9934 0.1113
vn -0.0263 0.9934 0.1113
vn 0.0228 0.9994 0.0255
vn -0.0228 0.9994 0.0255
vn -0.1572 -0.9695 -0.1881
vn -0.1572 0.9695 -0.1881
vn -0.4084 -0.8961 -0.1739
vn -0.4084 0.8961 -0.1739
vn -0.8620 -0.4977 -0.0966
vn -0.8620 0.4977 -0.0966
vn 0.4084 -0.8961 -0.1739
vn 0.4084 0.8961 -0.1739
vn 0.1572 -0.9695 -0.1881
vn 0.1572 0.9695 -0.1881
vn -0.7994 -0.5971 0.0669
vn -0.7753 -0.6314 0.0161
vn -0.2789 -0.9600 0.0245
vn -0.3089 -0.9452 0.1059
vn -0.0981 -0.9949 0.0254
vn -0.1113 -0.9876 0.1106
vn 0.3089 -0.9452 0.1059
vn 0.2789 -0.9600 0.0245
vn 0.1113 -0.9876 0.1106
vn 0.0981 -0.9949 0.0254
vn -0.9102 -0.3925 0.1319
vn -0.4729 -0.8352 0.2807
vn -0.1819 -0.9321 0.3133
vn 0.4729 -0.8352 0.2807
vn 0.1819 -0.9321 0.3133
vn -0.9822 -0.1053 0.1552
vn -0.7782 -0.3526 0.5197
vn -0.3875 -0.5176 0.7629
vn 0.7782 -0.3526 0.5197
vn 0.3875 -0.5176 0.7629
vn 0.2789 0.9600 0.0245
vn 0.3089 0.9452 0.1059
vn 0.0981 0.9949 0.0254
vn 0.1113 0.9876 0.1106
vn -0.7753 0.6314 0.0161
vn -0.7994 0.5971 0.0669
vn -0.3089 0.9452 0.1059
vn -0.2789 0.9600 0.0245
vn -0.1113 0.9876 0.1106
vn -0.0981 0.9949 0.0254
vn 0.4729 0.8352 0.2807
vn 0.1819 0.9321 0.3133
vn -0.9102 0.3925 0.1319
vn -0.4729 0.8352 0.2807
vn -0.1819 0.9321 0.3133
vn 0.7782 0.3526 0.5197
vn 0.3875 0.5176 0.7629
vn -0.9822 0.1053 0.1552
vn -0.7782 0.3526 0.5197
vn -0.3875 0.5176 0.7629
vt 0.157885 0.726200
vt 0.342115 0.726200
vt 0.342115 0.750000
vt 0.157885 0.750000
vt 0.157885 0.500000
vt 0.342115 0.500000
vt 0.342115 0.702400
vt 0.157885 0.702400
vt 0.407885 0.532885
vt 0.592115 0.532885
vt 0.592115 0.698070
vt 0.589139 0.709177
vt 0.584177 0.714139
vt 0.573070 0.717115
vt 0.426930 0.717115
vt 0.415823 0.714139
vt 0.410861 0.709177
vt 0.407885 0.698070
vt 0.375000 0.282885
vt 0.625000 0.282885
vt 0.625000 0.467115
vt 0.375000 0.467115
vt 0.375000 0.967115
vt 0.375000 0.782885
vt 0.422600 0.782885
vt 0.422600 0.967115
vt 0.601200 0.782885
vt 0.601200 0.967115
vt 0.577400 0.967115
vt 0.577400 0.782885
vt 0.625000 0.782885
vt 0.625000 0.967115
vt 0.657885 0.702400
vt 0.842115 0.702400
vt 0.842115 0.750000
vt 0.657885 0.750000
vt 0.657885 0.500000
vt 0.842115 0.500000
vt 0.379406 0.266443
vt 0.620594 0.266443
vt 0.391443 0.233557
vt 0.608557 0.233557
vt 0.407885 0.217115
vt 0.592115 0.217115
vt 0.391443 0.516443
vt 0.608557 0.516443
vt 0.379406 0.483557
vt 0.620594 0.483557
vt 0.410861 0.040823
vt 0.407885 0.051930
vt 0.391443 0.049765
vt 0.396119 0.032311
vt 0.375150 0.047040
vt 0.381072 0.024940
vt 0.125000 0.725060
vt 0.125000 0.702960
vt 0.396119 0.717689
vt 0.391443 0.700235
vt 0.381072 0.725060
vt 0.375150 0.702960
vt 0.375000 0.702960
vt 0.375000 0.725060
vt 0.415823 0.035861
vt 0.407311 0.021119
vt 0.382212 0.022965
vt 0.397965 0.007212
vt 0.125000 0.748860
vt 0.125000 0.727340
vt 0.407311 0.728881
vt 0.397965 0.742788
vt 0.382212 0.727035
vt 0.375000 0.727340
vt 0.375000 0.748860
vt 0.426930 0.032885
vt 0.424765 0.016443
vt 0.399940 0.006072
vt 0.422040 0.000150
vt 0.421480 1.000000
vt 0.377281 1.000000
vt 0.424765 0.733557
vt 0.422040 0.749850
vt 0.399940 0.743928
vt 0.377281 0.750000
vt 0.421480 0.750000
vt 0.608557 0.700235
vt 0.603881 0.717689
vt 0.624850 0.702960
vt 0.618928 0.725060
vt 0.625000 0.747719
vt 0.625000 0.703520
vt 0.592115 0.051930
vt 0.589139 0.040823
vt 0.603881 0.032311
vt 0.608557 0.049765
vt 0.618928 0.024940
vt 0.624850 0.047040
vt 0.875000 0.703520
vt 0.875000 0.747719
vt 0.592688 0.728881
vt 0.617788 0.727035
vt 0.602035 0.742788
vt 0.602340 0.750000
vt 0.623860 0.750000
vt 0.584177 0.035861
vt 0.592688 0.021119
vt 0.602035 0.007212
vt 0.617788 0.022965
vt 0.623860 1.000000
vt 0.602340 1.000000
vt 0.575235 0.733557
vt 0.600060 0.743928
vt 0.577960 0.749850
vt 0.577960 0.750000
vt 0.600060 0.750000
vt 0.573070 0.032885
vt 0.575235 0.016443
vt 0.577960 0.000150
vt 0.600060 0.006072
vt 0.600060 1.000000
vt 0.577960 1.000000
vt 0.375000 0.245594
vt 0.375000 0.048180
vt 0.125000 0.701820
vt 0.125000 0.504406
vt 0.358557 0.701820
vt 0.358557 0.504406
vt 0.576820 1.000000
vt 0.423180 1.000000
vt 0.423180 0.000000
vt 0.576820 0.000000
vt 0.875000 0.504406
vt 0.875000 0.701820
vt 0.625000 0.048180
vt 0.625000 0.245594
vt 0.576820 0.766443
vt 0.423180 0.766443
vt 0.641443 0.504406
vt 0.641443 0.701820
s 1
f 94/64/59 130/65/60 126/66/61 98/67/62
f 70/68/63 78/69/64 122/70/65 86/71/66
f 77/72/67 81/73/68 133/74/69 141/75/70 145/76/71 137/77/72 117/78/73 125/79/74 129/80/75 121/81/76
f 70/82/63 74/83/77 82/84/78 78/85/64
f 86/71/66 122/70/65 130/65/60 94/64/59
f 98/86/62 126/87/61 118/88/79 90/89/80
f 146/90/81 110/91/82 102/92/83 138/93/84
f 118/88/79 138/93/84 102/92/83 90/89/80
f 142/94/85 114/95/86 110/91/82 146/90/81
f 134/96/87 106/97/88 114/98/86 142/99/85
f 82/100/78 74/101/77 106/97/88 134/96/87
f 74/83/77 70/82/63 72/102/89 76/103/90
f 76/103/90 72/102/89 71/104/91 75/105/92
f 75/105/92 71/104/91 69/106/93 73/107/94
f 81/73/68 77/72/67 79/108/95 83/109/96
f 83/109/96 79/108/95 80/110/97 84/111/98
f 84/111/98 80/110/97 78/85/64 82/84/78
f 93/112/99 85/113/100 87/114/101 95/115/102
f 95/115/102 87/114/101 88/116/103 96/117/104
f 96/118/104 88/119/103 86/71/66 94/64/59
f 121/81/76 129/80/75 131/120/105 123/121/106
f 123/121/106 131/120/105 132/122/107 124/123/108
f 124/124/108 132/125/107 130/65/60 122/70/65
f 97/126/109 93/112/99 95/115/102 99/127/110
f 99/127/110 95/115/102 96/128/104 100/129/111
f 100/130/111 96/131/104 94/64/59 98/67/62
f 129/80/75 125/79/74 127/132/112 131/120/105
f 131/120/105 127/132/112 128/133/113 132/134/107
f 132/135/107 128/136/113 126/66/61 130/65/60
f 89/137/114 97/126/109 99/127/110 91/138/115
f 91/138/115 99/127/110 100/139/111 92/140/116
f 92/141/116 100/142/111 98/86/62 90/89/80
f 125/79/74 117/78/73 119/143/117 127/132/112
f 127/132/112 119/143/117 120/144/118 128/145/113
f 128/146/113 120/147/118 118/88/79 126/87/61
f 141/75/70 133/74/69 135/148/119 143/149/120
f 143/149/120 135/148/119 136/150/121 144/151/122
f 144/152/122 136/153/121 134/96/87 142/99/85
f 105/154/123 113/155/124 115/156/125 107/157/126
f 107/157/126 115/156/125 116/158/127 108/159/128
f 108/160/128 116/161/127 114/98/86 106/97/88
f 145/76/71 141/75/70 143/149/120 147/162/129
f 147/162/129 143/149/120 144/163/122 148/164/130
f 148/165/130 144/166/122 142/94/85 146/90/81
f 113/155/124 109/167/131 111/168/132 115/156/125
f 115/156/125 111/168/132 112/169/133 116/170/127
f 116/171/127 112/172/133 110/91/82 114/95/86
f 137/77/72 145/76/71 147/162/129 139/173/134
f 139/173/134 147/162/129 148/174/130 140/175/135
f 140/176/135 148/177/130 146/90/81 138/93/84
f 109/167/131 101/178/136 103/179/137 111/168/132
f 111/168/132 103/179/137 104/180/138 112/181/133
f 112/182/133 104/183/138 102/92/83 110/91/82
f 85/113/100 69/106/93 71/104/91 87/114/101
f 87/114/101 71/104/91 72/184/89 88/185/103
f 88/186/103 72/187/89 70/68/63 86/71/66
f 77/72/67 121/81/76 123/121/106 79/108/95
f 79/108/95 123/121/106 124/188/108 80/189/97
f 80/189/97 124/188/108 122/70/65 78/69/64
f 90/89/80 102/92/83 104/190/138 92/191/116
f 92/192/116 104/193/138 103/179/137 91/138/115
f 91/138/115 103/179/137 101/178/136 89/137/114
f 106/97/88 74/101/77 76/194/90 108/195/128
f 108/196/128 76/197/90 75/105/92 107/157/126
f 107/157/126 75/105/92 73/107/94 105/154/123
f 117/78/73 137/77/72 139/173/134 119/143/117
f 119/143/117 139/173/134 140/198/135 120/199/118
f 120/199/118 140/198/135 138/93/84 118/88/79
f 133/74/69 81/73/68 83/109/96 135/148/119
f 135/148/119 83/109/96 84/200/98 136/201/121
f 136/201/121 84/200/98 82/100/78 134/96/87
f 85/113/100 93/112/99 97/126/109 89/137/114 101/178/136 109/167/131 113/155/124 105/154/123 73/107/94 69/106/93
