# Blender 3.6.2
# www.blender.org
mtllib phone stand.mtl
o Cube.004
v -1.533272 0.033751 1.037044
v -1.657310 6.014555 1.059252
v -1.533272 0.033751 -1.037044
v -1.657310 6.014555 -1.059252
v 1.533272 0.033751 1.037044
v 1.657310 6.014555 1.059252
v 1.533272 0.033751 -1.037044
v 1.657310 6.014555 -1.059252
v 1.321326 0.033751 -1.037044
v -1.321326 0.033751 -1.037044
v -1.428218 6.014555 -1.059251
v 1.428218 6.014555 -1.059251
v -1.428218 -0.021288 1.059251
v 1.428218 -0.021288 1.059251
v 1.428218 6.014555 1.059251
v -1.428218 6.014555 1.059251
v -1.533272 5.174105 1.037044
v -1.533272 5.174105 -1.037044
v 1.533272 5.174105 -1.037044
v 1.533272 5.174105 1.037044
v 1.428218 5.229144 1.059251
v -1.428218 5.229144 1.059251
v -1.321326 5.174105 -1.037044
v 1.321326 5.174105 -1.037044
v 1.504582 6.014555 -1.059251
v 1.580946 6.014555 -1.059252
v 1.504582 -0.021288 1.059251
v 1.580946 -0.021288 1.059252
v 1.580946 -0.021288 -1.059251
v 1.504582 -0.021288 -1.059251
v 1.580946 6.014555 1.059251
v 1.504582 6.014555 1.059251
v 1.580946 5.229144 1.059251
v 1.504582 5.229144 1.059251
v 1.504582 5.229144 -1.059251
v 1.580946 5.229144 -1.059252
v -1.504582 -0.021288 -1.059251
v -1.580946 -0.021288 -1.059252
v -1.504582 6.014555 1.059251
v -1.580946 6.014555 1.059252
v -1.580946 6.014555 -1.059251
v -1.504582 6.014555 -1.059251
v -1.580946 -0.021288 1.059251
v -1.504582 -0.021288 1.059251
v -1.580946 5.229144 -1.059251
v -1.504582 5.229144 -1.059251
v -1.504582 5.229144 1.059251
v -1.580946 5.229144 1.059252
v -1.657310 5.335203 1.059251
v -1.657310 5.452610 1.059251
v -1.657310 5.452610 -1.059251
v -1.657310 5.335203 -1.059251
v 1.657310 5.452610 -1.059251
v 1.657310 5.335203 -1.059251
v 1.657310 5.452610 1.059251
v 1.657310 5.335203 1.059251
v 1.428218 5.452610 1.059251
v 1.428218 5.335203 1.059251
v -1.428218 5.452610 1.059251
v -1.428218 5.335203 1.059251
v -1.428218 5.452610 -1.059251
v -1.428218 5.335203 -1.059251
v 1.428218 5.452610 -1.059251
v 1.428218 5.335203 -1.059251
v 1.580946 5.452610 1.059251
v 1.580946 5.335203 1.059251
v 1.504582 5.452610 1.059251
v 1.504582 5.335203 1.059251
v 1.504582 5.452610 -1.059251
v 1.504582 5.335203 -1.059251
v 1.580946 5.452610 -1.059251
v 1.580946 5.335203 -1.059251
v -1.580946 5.452610 -1.059251
v -1.580946 5.335203 -1.059251
v -1.504582 5.452610 -1.059251
v -1.504582 5.335203 -1.059251
v -1.504582 5.452610 1.059251
v -1.504582 5.335203 1.059251
v -1.580946 5.452610 1.059251
v -1.580946 5.335203 1.059251
vn -0.5385 -0.0000 0.8426
vn -0.5164 0.2836 0.8080
vn -0.5164 0.2836 -0.8080
vn -0.5385 -0.0000 -0.8426
vn -0.0000 -0.0000 -1.0000
vn -0.0000 0.3312 -0.9436
vn 0.5164 0.2836 -0.8080
vn 0.5385 -0.0000 -0.8426
vn 0.5164 0.2836 0.8080
vn 0.5385 -0.0000 0.8426
vn -0.0000 -0.0000 1.0000
vn -0.0000 0.3312 0.9436
vn 0.7230 -0.2365 -0.6491
vn 0.8165 0.2055 0.5396
vn 0.8165 0.2055 -0.5396
vn 0.7230 -0.2365 0.6491
vn 0.0860 -0.3287 -0.9405
vn 0.3789 -0.1694 -0.9098
vn 0.5464 -0.2736 0.7916
vn 0.0350 -0.3304 0.9432
vn 0.2035 -0.1461 -0.9681
vn 0.2032 -0.1099 0.9730
vn -0.2035 -0.1461 -0.9681
vn -0.3789 -0.1694 -0.9098
vn 0.0472 -0.0146 -0.9988
vn -0.0350 -0.3304 0.9432
vn -0.2032 -0.1099 0.9730
vn -0.5464 -0.2736 0.7916
vn -0.7230 -0.2365 0.6491
vn -0.2336 -0.0929 0.9679
vn -0.8579 -0.1947 -0.4755
vn -0.8165 0.2055 -0.5396
vn 0.8579 -0.1947 0.4755
vn 0.8579 -0.1947 -0.4755
vn 0.2336 -0.0929 -0.9679
vn -0.8579 -0.1947 0.4755
vn -0.8165 0.2055 0.5396
vn -0.0472 -0.0146 -0.9988
vn -0.0860 -0.3287 -0.9405
vn 0.2336 -0.0929 0.9679
vn -0.2336 -0.0929 -0.9679
vn -0.7230 -0.2365 -0.6491
vn -0.0659 -0.0475 0.9967
vn -0.0659 -0.0475 -0.9967
vn 0.0183 -0.0132 -0.9997
vn -0.6159 -0.1855 -0.7657
vn -0.0183 -0.0132 -0.9997
vn 0.0659 -0.0475 -0.9967
vn -0.0284 -0.0355 -0.9990
vn 0.0659 -0.0475 0.9967
vn 0.6159 -0.1855 0.7657
vn 0.0284 -0.0355 -0.9990
vn -0.6159 -0.1855 0.7657
vn 0.6159 -0.1855 -0.7657
vt 0.614156 0.000000
vt 0.625000 0.000000
vt 0.625000 0.250000
vt 0.614156 0.250000
vt 0.614156 0.472222
vt 0.625000 0.472222
vt 0.625000 0.500000
vt 0.614156 0.500000
vt 0.625000 0.750000
vt 0.614156 0.750000
vt 0.614156 0.972222
vt 0.625000 0.972222
vt 0.625000 1.000000
vt 0.614156 1.000000
vt 0.347222 0.500000
vt 0.375000 0.500000
vt 0.375000 0.750000
vt 0.347222 0.750000
vt 0.847222 0.500000
vt 0.875000 0.500000
vt 0.875000 0.750000
vt 0.847222 0.750000
vt 0.680556 0.500000
vt 0.708333 0.500000
vt 0.708333 0.750000
vt 0.680556 0.750000
vt 0.791667 0.500000
vt 0.791667 0.750000
vt 0.180556 0.500000
vt 0.208333 0.500000
vt 0.208333 0.750000
vt 0.180556 0.750000
vt 0.000000 0.000000
vt 0.614156 0.805556
vt 0.625000 0.805556
vt 0.625000 0.833333
vt 0.614156 0.833333
vt 0.625000 0.916667
vt 0.614156 0.916667
vt 0.614156 0.305556
vt 0.625000 0.305556
vt 0.625000 0.333333
vt 0.614156 0.333333
vt 0.625000 0.416667
vt 0.614156 0.416667
vt 0.375000 0.333333
vt 0.592469 0.333333
vt 0.592469 0.416667
vt 0.375000 0.416667
vt 0.375000 0.305556
vt 0.592469 0.305556
vt 0.375000 0.805556
vt 0.592469 0.805556
vt 0.592469 0.833333
vt 0.375000 0.833333
vt 0.375000 0.972222
vt 0.592469 0.972222
vt 0.592469 1.000000
vt 0.375000 1.000000
vt 0.592469 0.500000
vt 0.592469 0.750000
vt 0.375000 0.472222
vt 0.592469 0.472222
vt 0.375000 0.000000
vt 0.592469 0.000000
vt 0.592469 0.250000
vt 0.375000 0.250000
vt 0.592469 0.444444
vt 0.375000 0.444444
vt 0.592469 0.777778
vt 0.375000 0.777778
vt 0.625000 0.777778
vt 0.614156 0.777778
vt 0.652778 0.500000
vt 0.652778 0.750000
vt 0.291667 0.500000
vt 0.319444 0.500000
vt 0.319444 0.750000
vt 0.291667 0.750000
vt 0.625000 0.444444
vt 0.614156 0.444444
vt 0.375000 0.916667
vt 0.592469 0.916667
vt 0.592469 0.944444
vt 0.375000 0.944444
vt 0.592469 0.277778
vt 0.375000 0.277778
vt 0.625000 0.277778
vt 0.614156 0.277778
vt 0.125000 0.500000
vt 0.152778 0.500000
vt 0.152778 0.750000
vt 0.125000 0.750000
vt 0.819444 0.500000
vt 0.819444 0.750000
vt 0.625000 0.944444
vt 0.614156 0.944444
vt 0.603313 0.944444
vt 0.603313 0.972222
vt 0.603313 0.916667
vt 0.603313 0.277778
vt 0.603313 0.305556
vt 0.603313 0.250000
vt 0.603313 0.444444
vt 0.603313 0.472222
vt 0.603313 0.416667
vt 0.603313 0.777778
vt 0.603313 0.805556
vt 0.603313 0.750000
vt 0.603313 0.333333
vt 0.603313 0.833333
vt 0.603313 1.000000
vt 0.603313 0.500000
vt 0.603313 0.000000
s 1
f 50/1/1 2/2/2 4/3/3 51/4/4
f 71/5/5 26/6/6 8/7/7 53/8/8
f 53/8/8 8/7/7 6/9/9 55/10/10
f 79/11/11 40/12/12 2/13/2 50/14/1
f 29/15/13 7/16/14 5/17/15 28/18/16
f 41/19/6 4/20/3 2/21/2 40/22/12
f 25/23/6 12/24/6 15/25/12 32/26/12
f 12/24/6 11/27/6 16/28/12 15/25/12
f 37/29/17 10/30/18 13/31/19 44/32/20
f 23/33/21 22/33/22 13/33/19 10/33/18
f 67/34/11 32/35/12 15/36/12 57/37/11
f 57/37/11 15/36/12 16/38/12 59/39/11
f 75/40/5 42/41/6 11/42/6 61/43/5
f 61/43/5 11/42/6 12/44/6 63/45/5
f 10/46/18 23/47/21 24/48/23 9/49/24
f 37/50/17 46/51/25 23/47/21 10/46/18
f 27/52/26 34/53/11 21/54/27 14/55/28
f 43/56/29 48/57/30 17/58/31 1/59/32
f 7/16/14 19/60/33 20/61/34 5/17/15
f 29/62/13 36/63/35 19/60/33 7/16/14
f 1/64/32 17/65/31 18/66/36 3/67/37
f 21/33/27 22/33/22 23/33/21 24/33/23
f 24/33/23 9/33/24 14/33/28 21/33/27
f 9/49/24 24/48/23 35/68/38 30/69/39
f 30/69/39 35/68/38 36/63/35 29/62/13
f 5/17/15 20/61/34 33/70/40 28/71/16
f 28/71/16 33/70/40 34/53/11 27/52/26
f 55/10/10 6/9/9 31/72/12 65/73/11
f 65/73/11 31/72/12 32/35/12 67/34/11
f 8/7/7 26/74/6 31/75/12 6/9/9
f 26/74/6 25/23/6 32/26/12 31/75/12
f 9/76/24 30/77/39 27/78/26 14/79/28
f 30/77/39 29/15/13 28/18/16 27/78/26
f 63/45/5 12/44/6 25/80/6 69/81/5
f 69/81/5 25/80/6 26/6/6 71/5/5
f 13/82/19 22/83/22 47/84/11 44/85/20
f 44/85/20 47/84/11 48/57/30 43/56/29
f 3/67/37 18/66/36 45/86/41 38/87/42
f 38/87/42 45/86/41 46/51/25 37/50/17
f 51/4/4 4/3/3 41/88/6 73/89/5
f 73/89/5 41/88/6 42/41/6 75/40/5
f 3/90/37 38/91/42 43/92/29 1/93/32
f 38/91/42 37/29/17 44/32/20 43/92/29
f 11/27/6 42/94/6 39/95/12 16/28/12
f 42/94/6 41/19/6 40/22/12 39/95/12
f 59/39/11 16/38/12 39/96/12 77/97/11
f 77/97/11 39/96/12 40/12/12 79/11/11
f 47/84/11 78/98/11 80/99/43 48/57/30
f 78/98/11 77/97/11 79/11/11 80/99/43
f 22/83/22 60/100/11 78/98/11 47/84/11
f 60/100/11 59/39/11 77/97/11 78/98/11
f 45/86/41 74/101/44 76/102/45 46/51/25
f 74/101/44 73/89/5 75/40/5 76/102/45
f 18/66/36 52/103/46 74/101/44 45/86/41
f 52/103/46 51/4/4 73/89/5 74/101/44
f 35/68/38 70/104/47 72/105/48 36/63/35
f 70/104/47 69/81/5 71/5/5 72/105/48
f 24/48/23 64/106/49 70/104/47 35/68/38
f 64/106/49 63/45/5 69/81/5 70/104/47
f 33/70/40 66/107/50 68/108/11 34/53/11
f 66/107/50 65/73/11 67/34/11 68/108/11
f 20/61/34 56/109/51 66/107/50 33/70/40
f 56/109/51 55/10/10 65/73/11 66/107/50
f 23/47/21 62/110/52 64/106/49 24/48/23
f 62/110/52 61/43/5 63/45/5 64/106/49
f 46/51/25 76/102/45 62/110/52 23/47/21
f 76/102/45 75/40/5 61/43/5 62/110/52
f 21/54/27 58/111/11 60/100/11 22/83/22
f 58/111/11 57/37/11 59/39/11 60/100/11
f 34/53/11 68/108/11 58/111/11 21/54/27
f 68/108/11 67/34/11 57/37/11 58/111/11
f 48/57/30 80/99/43 49/112/53 17/58/31
f 80/99/43 79/11/11 50/14/1 49/112/53
f 19/60/33 54/113/54 56/109/51 20/61/34
f 54/113/54 53/8/8 55/10/10 56/109/51
f 36/63/35 72/105/48 54/113/54 19/60/33
f 72/105/48 71/5/5 53/8/8 54/113/54
f 17/65/31 49/114/53 52/103/46 18/66/36
f 49/114/53 50/1/1 51/4/4 52/103/46
o Cube.005
v 0.297277 3.148998 -0.497150
v 0.297277 4.286571 -0.718161
v 0.297277 3.148998 -1.230469
v 0.297277 4.286571 -1.230469
v 1.089760 3.148998 -0.497150
v 1.089760 4.286571 -0.718161
v 1.089760 3.148998 -1.230469
v 1.089760 4.286571 -1.230469
v 0.297277 3.231929 -0.718161
v 0.297277 3.231929 -1.230469
v 1.089760 3.231929 -1.230469
v 1.089760 3.231929 -0.718161
v 0.317072 3.258273 -0.935028
v 0.317072 4.260227 -0.935028
v 1.069965 4.260227 -0.935028
v 1.069965 3.258273 -0.935028
v 0.297277 3.583476 -0.718161
v 0.297277 3.935024 -0.718161
v 0.297277 3.935024 -1.230469
v 0.297277 3.583476 -1.230469
v 1.089760 3.935024 -1.230469
v 1.089760 3.583476 -1.230469
v 1.089760 3.935024 -0.718161
v 1.089760 3.583476 -0.718161
v 0.317072 3.592257 -0.935028
v 0.317072 3.926242 -0.935028
v 1.069965 3.926242 -0.935028
v 1.069965 3.592257 -0.935028
v 0.693518 3.148998 -1.230469
v 0.693518 4.286571 -1.230469
v 0.693518 3.148998 -0.497150
v 0.693518 4.286571 -0.718161
v 0.693518 3.231929 -0.718161
v 0.693518 3.231929 -1.230469
v 0.693518 4.260227 -0.935028
v 0.693518 3.258273 -0.935028
v 0.693518 3.592257 -0.935028
v 0.693518 3.926242 -0.935028
v 0.693518 3.583476 -1.230469
v 0.693518 3.935024 -1.230469
v 0.495398 3.148998 -1.230469
v 0.495398 4.286571 -0.718161
v 0.495398 3.231929 -0.718161
v 0.505295 4.260227 -0.935028
v 0.505295 3.258273 -0.935028
v 0.505295 3.592257 -0.935028
v 0.505295 3.926242 -0.935028
v 0.495398 4.286571 -1.230469
v 0.495398 3.148998 -0.497150
v 0.495398 3.231929 -1.230469
v 0.495398 3.583476 -1.230469
v 0.495398 3.935024 -1.230469
v 1.069965 3.926242 -0.832864
v 1.069965 3.592257 -0.832864
v 0.693518 3.592257 -0.832864
v 0.693518 3.926242 -0.832864
vn -0.0191 -0.0000 0.9998
vn -0.2077 0.1546 0.9659
vn -0.5078 0.3538 -0.7855
vn -0.5429 -0.0000 -0.8398
vn -0.0000 -0.0000 -1.0000
vn -0.0000 0.4106 -0.9118
vn 0.5078 0.3538 -0.7855
vn 0.5429 -0.0000 -0.8398
vn 0.2077 0.1546 0.9659
vn 0.0191 -0.0000 0.9998
vn -0.0000 0.9707 0.2403
vn 0.8050 0.5658 0.1781
vn -0.4828 0.3373 0.8081
vn -0.0000 0.3922 0.9199
vn -0.0000 -0.4106 -0.9118
vn 0.5078 -0.3538 -0.7855
vn 0.3819 -0.0349 0.9236
vn -0.0000 -0.0378 0.9993
vn -0.0000 0.0123 0.9999
vn -0.8050 0.5658 0.1781
vn -0.3819 -0.0349 0.9236
vn -0.5078 -0.3538 -0.7855
vn -0.0000 -0.0000 1.0000
vn -0.0000 -0.3922 0.9199
vn 0.4828 -0.3373 0.8081
vn 0.5204 -0.0000 0.8539
vn 0.4828 0.3373 0.8081
vn -0.4828 -0.3373 0.8081
vn -0.4714 0.3296 0.8180
vn -0.4714 -0.3296 0.8180
vn -0.2084 -0.1452 0.9672
vn 0.5078 -0.3538 0.7855
vn -0.5078 -0.3538 0.7855
vn -0.2084 0.1452 0.9672
vn 0.5078 0.3538 0.7855
vn -0.5078 0.3538 0.7855
vt 0.547742 0.000000
vt 0.625000 0.000000
vt 0.625000 0.250000
vt 0.547742 0.250000
vt 0.547742 0.375000
vt 0.625000 0.375000
vt 0.625000 0.500000
vt 0.547742 0.500000
vt 0.625000 0.750000
vt 0.547742 0.750000
vt 0.393225 0.875000
vt 0.393225 0.750000
vt 0.250000 0.500000
vt 0.375000 0.500000
vt 0.375000 0.750000
vt 0.250000 0.750000
vt 0.812500 0.500000
vt 0.875000 0.500000
vt 0.875000 0.750000
vt 0.812500 0.750000
vt 0.375000 0.937500
vt 0.393225 0.937500
vt 0.393225 1.000000
vt 0.375000 1.000000
vt 0.393225 0.500000
vt 0.375000 0.375000
vt 0.393225 0.375000
vt 0.375000 0.000000
vt 0.393225 0.000000
vt 0.393225 0.250000
vt 0.375000 0.250000
vt 0.547742 0.937500
vt 0.625000 0.937500
vt 0.625000 1.000000
vt 0.547742 1.000000
vt 0.470484 0.000000
vt 0.470484 0.750000
vt 0.470484 0.937500
vt 0.470484 1.000000
vt 0.470484 0.500000
vt 0.470484 0.375000
vt 0.470484 0.250000
vt 0.470484 0.312500
vt 0.547742 0.312500
vt 0.393225 0.312500
vt 0.470484 0.875000
vt 0.750000 0.750000
vt 0.625000 0.875000
vt 0.547742 0.875000
vt 0.375000 0.312500
vt 0.375000 0.875000
vt 0.750000 0.500000
vt 0.187500 0.500000
vt 0.187500 0.750000
vt 0.625000 0.312500
vt 0.125000 0.500000
vt 0.125000 0.750000
s 1
f 98/115/55 82/116/56 84/117/57 99/118/58
f 120/119/59 110/120/60 88/121/61 101/122/62
f 101/122/62 88/121/61 86/123/63 103/124/64
f 113/125/65 92/126/66 96/126/67 116/125/68
f 109/127/69 87/128/70 85/129/71 111/130/72
f 128/131/60 84/132/57 82/133/56 122/134/73
f 129/135/72 123/136/65 89/137/74 81/138/75
f 87/128/70 91/139/62 92/126/66 85/129/71
f 109/140/69 114/141/59 91/139/62 87/128/70
f 81/142/75 89/143/74 90/144/58 83/145/76
f 127/146/77 124/147/78 94/148/79 106/149/80
f 97/150/55 89/143/74 93/143/81 105/150/80
f 103/124/64 86/123/63 95/123/82 107/124/83
f 122/134/73 82/133/56 94/133/79 124/134/78
f 92/126/66 104/151/64 108/151/84 96/126/67
f 104/151/64 103/124/64 107/124/83 108/151/84
f 82/116/56 98/115/55 106/115/80 94/116/79
f 98/115/55 97/150/55 105/150/80 106/115/80
f 125/136/68 126/152/77 105/153/80 93/137/81
f 126/152/77 127/146/77 106/149/80 105/153/80
f 91/139/62 102/154/62 104/151/64 92/126/66
f 102/154/62 101/122/62 103/124/64 104/151/64
f 114/141/59 119/155/59 102/154/62 91/139/62
f 119/155/59 120/119/59 101/122/62 102/154/62
f 89/143/74 97/150/55 100/156/58 90/144/58
f 97/150/55 98/115/55 99/118/58 100/156/58
f 131/157/59 132/158/59 120/119/59 119/155/59
f 130/159/59 131/157/59 119/155/59 114/141/59
f 117/160/85 108/151/84 134/151/86 135/160/87
f 96/126/67 108/151/84 117/160/85 116/125/68
f 86/123/63 112/161/73 115/161/78 95/123/82
f 107/124/83 95/123/82 115/162/78 118/163/88
f 121/164/69 130/159/59 114/141/59 109/140/69
f 85/129/71 92/126/66 113/125/65 111/165/72
f 88/121/61 110/166/60 112/161/73 86/123/63
f 121/167/69 109/127/69 111/130/72 129/168/72
f 123/136/65 113/125/65 116/125/68 125/136/68
f 132/158/59 128/169/60 110/120/60 120/119/59
f 99/118/58 84/117/57 128/169/60 132/158/59
f 89/137/74 123/136/65 125/136/68 93/137/81
f 83/170/76 121/167/69 129/168/72 81/171/75
f 83/145/76 90/144/58 130/159/59 121/164/69
f 90/144/58 100/156/58 131/157/59 130/159/59
f 100/156/58 99/118/58 132/158/59 131/157/59
f 117/160/85 118/163/88 127/146/77 126/152/77
f 116/125/68 117/160/85 126/152/77 125/136/68
f 112/161/73 122/134/73 124/134/78 115/161/78
f 118/163/88 115/162/78 124/147/78 127/146/77
f 111/165/72 113/125/65 123/136/65 129/135/72
f 110/166/60 128/131/60 122/134/73 112/161/73
f 134/151/86 133/124/89 136/163/90 135/160/87
f 108/151/84 107/124/83 133/124/89 134/151/86
f 107/124/83 118/163/88 136/163/90 133/124/89
f 118/163/88 117/160/85 135/160/87 136/163/90
o Cube.006
v 0.353808 3.148246 -0.649381
v 0.353808 4.278553 -0.649381
v 0.742472 3.148246 -0.649381
v 0.742472 4.278553 -0.649381
v 0.353808 3.404090 -0.550534
v 0.353808 4.022708 -0.550534
v 0.353808 4.022708 -0.795959
v 0.353808 3.404090 -0.795959
v 0.742472 4.022708 -0.795959
v 0.742472 3.404090 -0.795959
v 0.742472 4.022708 -0.550534
v 0.742472 3.404090 -0.550534
v 0.353808 3.295018 -0.850850
v 0.353808 3.148246 -0.840620
v 0.353808 3.191234 -0.933575
v 0.353808 4.278553 -0.840620
v 0.353808 4.131780 -0.850850
v 0.353808 4.235564 -0.933575
v 0.742472 3.148246 -0.840620
v 0.742472 3.295018 -0.850850
v 0.742472 3.191234 -0.933575
v 0.742472 4.131780 -0.850850
v 0.742472 4.278553 -0.840620
v 0.742472 4.235564 -0.933575
vn 1.0000 -0.0000 -0.0000
vn -1.0000 -0.0000 -0.0000
vn -0.0000 0.3604 0.9328
vn -0.0000 1.0000 -0.0000
vn -0.0000 -0.4495 -0.8933
vn -0.0000 -0.3604 0.9328
vn -0.0000 -0.0000 1.0000
vn -0.0000 -1.0000 -0.0000
vn -0.0000 -0.0000 -1.0000
vn -0.0000 0.4495 -0.8933
vn -0.0000 -0.9076 -0.4198
vn -0.0000 0.6233 -0.7820
vn -0.0000 0.9076 -0.4198
vn -0.0000 -0.6233 -0.7820
vt 0.375000 0.607034
vt 0.394291 0.531741
vt 0.440864 0.500000
vt 0.458333 0.500000
vt 0.458333 0.750000
vt 0.375000 0.750000
vt 0.541667 0.000000
vt 0.625000 0.000000
vt 0.625000 0.142966
vt 0.605709 0.218259
vt 0.559136 0.250000
vt 0.541667 0.250000
vt 0.541667 0.750000
vt 0.625000 0.750000
vt 0.625000 1.000000
vt 0.541667 1.000000
vt 0.625000 0.607034
vt 0.875000 0.607034
vt 0.875000 0.750000
vt 0.559136 0.500000
vt 0.541667 0.500000
vt 0.458333 1.000000
vt 0.375000 1.000000
vt 0.605709 0.531741
vt 0.125000 0.607034
vt 0.125000 0.750000
vt 0.458333 0.250000
vt 0.440864 0.250000
vt 0.440864 0.500000
vt 0.458333 0.000000
vt 0.125000 0.500000
vt 0.375000 0.500000
vt 0.375000 0.250000
vt 0.625000 0.500000
vt 0.875000 0.500000
vt 0.625000 0.250000
vt 0.375000 0.000000
vt 0.394291 0.218259
vt 0.375000 0.142966
s 0
f 155/172/91 157/173/91 156/174/91 146/175/91 148/176/91 139/177/91
f 142/178/92 138/179/92 152/180/92 154/181/92 153/182/92 143/183/92
f 147/184/93 140/185/93 138/186/93 142/187/93
f 159/188/94 152/189/94 138/190/94 140/185/94
f 143/183/95 153/182/95 158/191/95 145/192/95
f 139/177/96 148/176/96 141/193/96 137/194/96
f 148/176/97 147/184/97 142/187/97 141/193/97
f 145/192/91 158/191/91 160/195/91 159/188/91 140/185/91 147/184/91
f 146/175/91 145/192/91 147/184/91 148/176/91
f 150/196/98 155/172/98 139/177/98 137/197/98
f 144/198/99 143/183/99 145/192/99 146/175/99
f 149/199/100 144/198/100 146/175/100 156/200/100
f 141/201/92 142/178/92 143/183/92 144/198/92
f 155/172/101 150/196/101 151/202/101 157/203/101
f 157/203/102 151/204/102 149/199/102 156/200/102
f 152/189/103 159/188/103 160/205/103 154/206/103
f 154/207/104 160/205/104 158/191/104 153/182/104
f 137/208/92 141/201/92 144/198/92 149/199/92 151/209/92 150/210/92
